Coordinates
version=1
nRows=16
nColumns=40
inDegrees=yes

Units are S.I. units (second, meters, Newtons, ...)
Angles are in degrees.

endheader
time	pelvis_tilt	pelvis_list	pelvis_rotation	pelvis_tx	pelvis_ty	pelvis_tz	hip_flexion_r	hip_adduction_r	hip_rotation_r	knee_angle_r	knee_angle_r_beta	ankle_angle_r	subtalar_angle_r	mtp_angle_r	hip_flexion_l	hip_adduction_l	hip_rotation_l	knee_angle_l	knee_angle_l_beta	ankle_angle_l	subtalar_angle_l	mtp_angle_l	lumbar_extension	lumbar_bending	lumbar_rotation	arm_flex_r	arm_add_r	arm_rot_r	elbow_flex_r	pro_sup_r	wrist_flex_r	wrist_dev_r	arm_flex_l	arm_add_l	arm_rot_l	elbow_flex_l	pro_sup_l	wrist_flex_l	wrist_dev_l
     14.37500000	     -2.61041298	     -5.56272130	     -0.72528033	      0.90316273	      0.92264964	      0.48309341	     19.39277963	      3.66334869	    -11.67598498	     22.34159385	     22.34159385	      7.21212468	     -5.23550525	     -3.10005765	      6.00777808	    -11.03812388	     -6.57141158	     41.35338782	     41.35338782	     14.09671859	    -17.37039797	     -2.51368566	     -8.29122942	      8.20455976	      2.56626393	     -0.26606147	    -10.85811431	    -10.91514928	     26.63736944	     46.33123644	      0.00000000	      0.00000000	     17.77149354	    -11.18579354	     -5.47380774	     67.94384424	     46.92275168	      0.00000000	      0.00000000
     14.38742857	     -2.47864206	     -5.74435218	     -0.26443684	      0.90305246	      0.92359641	      0.48508417	     18.52411547	      3.91255752	    -12.21422677	     21.96498289	     21.96498289	      7.59275166	     -4.94732890	     -3.07342856	      7.93817264	    -11.71450959	     -5.51085599	     45.28464755	     45.28464755	     12.47972804	    -17.91290310	     -2.26867248	     -8.47376246	      8.31696947	      2.67164656	      1.28514926	    -10.98558292	    -10.88983732	     27.46119834	     46.30870199	      0.00000000	      0.00000000	     17.20635638	    -10.59367646	     -5.17580534	     66.75622475	     46.88374024	      0.00000000	      0.00000000
     14.39985714	     -2.53344158	     -5.77605003	      0.19825946	      0.90263070	      0.92432302	      0.48667081	     17.87550953	      3.90839337	    -12.97185933	     21.62760212	     21.62760212	      8.15161011	     -4.06079791	     -2.61079136	     10.31446459	    -11.99303117	     -4.14626934	     49.43458299	     49.43458299	     12.57582860	    -17.92246245	      2.48048403	     -8.30622857	      8.34600123	      3.23234858	      1.95603594	    -11.35475731	    -10.49065739	     29.84826588	     46.18786760	      0.00000000	      0.00000000	     17.76083342	     -9.57650489	     -4.57723112	     62.30642485	     46.81993552	      0.00000000	      0.00000000
     14.41228571	     -2.54322647	     -5.88153908	      0.63765612	      0.90204005	      0.92506003	      0.48822612	     17.15321604	      4.02327757	    -13.69141273	     21.19954717	     21.19954717	      8.49932421	     -3.35530527	     -2.50724364	     12.56412594	    -12.32884441	     -2.93129524	     53.09232228	     53.09232228	     12.22286457	    -18.03389607	      5.72964476	     -8.32202147	      8.42012212	      3.45769813	      3.17719170	    -11.73000865	    -10.05004439	     31.77814780	     46.09061055	      0.00000000	      0.00000000	     17.39565789	     -9.01083641	     -3.95424915	     59.99339505	     46.77401112	      0.00000000	      0.00000000
     14.42471429	     -2.53276427	     -6.03923186	      1.05783383	      0.90130633	      0.92574758	      0.48977363	     16.39448632	      4.24318123	    -14.28399591	     20.70501201	     20.70501201	      8.76578571	     -2.86266364	     -2.54279541	     14.65789828	    -12.76656819	     -1.95981910	     56.12277817	     56.12277817	     11.05644185	    -18.26796751	      6.08779890	     -8.37624776	      8.55429828	      3.36072438	      5.00616265	    -11.97816724	    -10.05293382	     32.77775221	     46.06440732	      0.00000000	      0.00000000	     16.45888376	     -8.69541641	     -3.67183475	     58.76151749	     46.73076939	      0.00000000	      0.00000000
     14.43714286	     -2.50460001	     -6.03747173	      1.43802949	      0.90046668	      0.92661370	      0.49110870	     15.59860915	      4.21691048	    -15.15703175	     20.20775763	     20.20775763	      9.04097924	     -1.69269459	     -2.63909105	     16.65508184	    -12.93149930	     -1.09278177	     58.71094648	     58.71094648	     10.77931640	    -18.35095163	      8.07055095	     -8.41915169	      8.47936246	      3.09365052	      6.81374972	    -12.19019506	     -9.79565332	     34.42421724	     45.99433954	      0.00000000	      0.00000000	     15.97396691	     -8.44573983	     -3.38159338	     55.59595815	     46.67128516	      0.00000000	      0.00000000
     14.44957143	     -2.52226027	     -6.07643452	      1.76983752	      0.89938558	      0.92743530	      0.49240486	     14.90042952	      4.27461190	    -15.86463636	     19.75871069	     19.75871069	      9.30411714	     -0.77275850	     -2.56957685	     18.70006945	    -13.10052501	     -0.30424953	     60.89578693	     60.89578693	     11.07051236	    -18.34211930	     10.85332031	     -8.45673855	      8.48651419	      3.72037764	      7.97616567	    -12.82971473	     -9.27589083	     36.38873622	     45.89299727	      0.00000000	      0.00000000	     16.09229940	     -7.65570147	     -2.95218451	     51.92419183	     46.60118383	      0.00000000	      0.00000000
     14.46200000	     -2.52967076	     -6.11273746	      2.06000163	      0.89822622	      0.92833034	      0.49368979	     14.17244413	      4.38075198	    -16.42624499	     19.24338806	     19.24338806	      9.54598696	     -0.00020407	     -2.44303648	     20.56817553	    -13.32179361	      0.22177076	     62.40822719	     62.40822719	     11.13700101	    -18.37653559	     12.16292689	     -8.53644623	      8.46761050	      4.06299551	      9.43358712	    -13.37853877	     -8.94342970	     38.35849044	     45.80789677	      0.00000000	      0.00000000	     15.72964942	     -7.19514712	     -2.46939535	     48.98791175	     46.52856935	      0.00000000	      0.00000000
     14.47442857	     -2.54029703	     -6.13876803	      2.32255707	      0.89695643	      0.92930002	      0.49494685	     13.41622688	      4.52457124	    -16.85476241	     18.62326664	     18.62326664	      9.67331840	      0.57609394	     -2.37236655	     22.28420553	    -13.56889657	      0.54637707	     63.24222668	     63.24222668	     11.02143009	    -18.46270163	     12.27983412	     -8.63711913	      8.43807785	      3.91382667	     11.50514666	    -13.58275404	     -8.97157416	     39.64893884	     45.77362923	      0.00000000	      0.00000000	     14.65931960	     -7.12955159	     -2.21166757	     47.29333686	     46.47712064	      0.00000000	      0.00000000
     14.48685714	     -2.54028646	     -6.07918730	      2.55579122	      0.89561705	      0.93035861	      0.49605852	     12.67836900	      4.52110540	    -17.45057949	     18.09784892	     18.09784892	      9.85442777	      1.54537968	     -2.29070868	     23.86551896	    -13.68242912	      0.74316490	     63.51140198	     63.51140198	     11.29334211	    -18.51775866	     13.02909972	     -8.69135775	      8.31891447	      4.33461598	     13.08992009	    -14.13475504	     -8.63050170	     41.39583262	     45.70135597	      0.00000000	      0.00000000	     14.64474281	     -6.67024631	     -1.78089026	     43.21018358	     46.39934833	      0.00000000	      0.00000000
     14.49928571	     -2.58139436	     -5.94715978	      2.66801280	      0.89413517	      0.93133335	      0.49718811	     12.10179448	      4.51386514	    -17.49811645	     17.73228257	     17.73228257	      9.97876818	      1.73844301	     -2.24974651	     25.28303328	    -13.77929409	      0.63748915	     63.13432572	     63.13432572	     11.41880996	    -18.58895066	     13.01293989	     -8.80487174	      8.08437823	      4.80342381	     15.05343740	    -14.68897322	     -8.76650698	     42.30763229	     45.68707342	      0.00000000	      0.00000000	     13.47741678	     -6.39421660	     -1.63653214	     42.39662045	     46.36380838	      0.00000000	      0.00000000
     14.51171429	     -2.53533098	     -5.99111015	      2.96075910	      0.89278692	      0.93254508	      0.49813659	     11.12067386	      4.73514725	    -17.97963073	     16.76204165	     16.76204165	      9.97649310	      2.48360455	     -2.07827571	     26.52594938	    -13.95373317	      0.72684488	     62.17452637	     62.17452637	     11.62529469	    -18.62770034	     13.16829352	     -8.90238051	      8.11748744	      3.94190529	     17.45531632	    -14.31297240	     -8.77093128	     44.10536822	     45.63376041	      0.00000000	      0.00000000	     12.26257906	     -6.81710908	     -1.37778719	     39.84412573	     46.30321875	      0.00000000	      0.00000000
     14.52414286	     -2.51739671	     -5.88317067	      3.12433999	      0.89132391	      0.93358541	      0.49892604	     10.34482343	      4.74702667	    -18.32321213	     16.13905788	     16.13905788	     10.07766561	      3.13216839	     -2.03069610	     27.56502295	    -13.96056315	      0.55355979	     60.66926894	     60.66926894	     11.88495934	    -18.64865236	     13.38587655	     -9.00206082	      7.98635760	      3.93326520	     19.51526199	    -14.50912353	     -8.65874266	     45.63524216	     45.58471196	      0.00000000	      0.00000000	     11.55537025	     -6.77117934	     -1.06094331	     36.92343073	     46.24104692	      0.00000000	      0.00000000
     14.53657143	     -2.68974717	     -5.81839886	      3.21498262	      0.88962621	      0.93413896	      0.49966027	     10.01581299	      4.76937712	    -18.33158471	     15.93040537	     15.93040537	     10.16163177	      3.22026909	     -2.03194515	     28.67957182	    -13.98591142	      0.28893813	     58.71027590	     58.71027590	     12.09260021	    -18.57910547	     13.54176574	     -8.95551742	      7.84558234	      4.54602222	     21.29644395	    -15.21815442	     -8.80179637	     46.42159656	     45.57402527	      0.00000000	      0.00000000	     10.44404949	     -6.55184354	     -0.97087913	     36.14049422	     46.21092899	      0.00000000	      0.00000000
     14.54900000	     -2.60694164	     -5.67367673	      3.40481877	      0.88828213	      0.93507978	      0.50015034	      9.01464689	      4.77987774	    -18.68642143	     15.03279774	     15.03279774	     10.29863403	      4.02219481	     -2.06086602	     29.28793190	    -13.79500476	      0.12451977	     56.22761615	     56.22761615	     12.02064628	    -18.62936957	     13.72202396	     -9.04379466	      7.68286533	      4.60259510	     22.97911089	    -15.44570727	     -8.32709441	     48.95816535	     45.47438221	      0.00000000	      0.00000000	     10.75539040	     -6.39742498	     -0.30129186	     30.31792590	     46.11267655	      0.00000000	      0.00000000
     14.56142857	     -2.64304584	     -5.53095502	      3.50463130	      0.88679129	      0.93559919	      0.50056084	      8.33945307	      4.79250952	    -18.61722256	     14.46546878	     14.46546878	     10.43979025	      4.10006577	     -2.00611644	     29.85465769	    -13.57362292	     -0.13100829	     53.38642110	     53.38642110	     11.96195456	    -18.56839671	     14.04695378	     -9.10723364	      7.49171206	      4.60414367	     25.01515031	    -15.55663892	     -8.48206752	     50.35488311	     45.44327836	      0.00000000	      0.00000000	      9.44357397	     -6.53050214	     -0.21942235	     29.21527577	     46.07729650	      0.00000000	      0.00000000
